<?xml version="1.0" encoding="UTF-8"?>
<svg version="1.1" xmlns="http://www.w3.org/2000/svg" width="1024" height="1024">
<path d="M0 0 C3.85091169 2.53996303 5.19095396 4.87038712 6.1171875 9.25390625 C7.39105847 16.14032128 7.25374171 23.0202153 7.1875 30 C7.18603979 31.33463478 7.1853836 32.66927068 7.18554688 34.00390625 C7.14070992 43.71858016 7.14070992 43.71858016 6 46 C17.55 46 29.1 46 41 46 C40.96519531 43.39867187 40.93039062 40.79734375 40.89453125 38.1171875 C40.87110509 35.58529761 40.85290597 33.05342 40.83520508 30.52148438 C40.82016005 28.76784827 40.79971896 27.01424953 40.77368164 25.26074219 C40.73710879 22.73362991 40.7202308 20.20701704 40.70703125 17.6796875 C40.69154739 16.90132538 40.67606354 16.12296326 40.66011047 15.3210144 C40.65862648 10.47257417 41.33116121 7.20599222 44 3 C47.27287321 0.17342768 49.2573409 -0.90879625 53.5625 -1.4375 C58.37151307 -0.82544379 60.73341897 0.71989937 64.10424805 4.12670898 C66.46250528 7.70099481 66.61885726 10.63707523 66.64453125 14.78515625 C66.66343918 15.52326035 66.68234711 16.26136444 66.701828 17.02183533 C66.73819975 18.57565154 66.76539752 20.1297066 66.78393555 21.68383789 C66.81245686 24.05890738 66.8675562 26.43218197 66.92773438 28.80664062 C66.95987771 30.32028049 66.99052756 31.83395297 67.01953125 33.34765625 C67.0340181 34.05503433 67.04850494 34.76241241 67.06343079 35.4912262 C67.10065267 38.93220318 66.84386615 41.62453539 66 45 C77.55 45.33 89.1 45.66 101 46 C100.96519531 43.48246094 100.93039062 40.96492188 100.89453125 38.37109375 C100.8710916 35.91529472 100.8529002 33.45950847 100.83520508 31.00366211 C100.82017874 29.30536258 100.79975177 27.60710145 100.77368164 25.90893555 C100.73702551 23.45872482 100.72021211 21.00903 100.70703125 18.55859375 C100.69154739 17.80726669 100.67606354 17.05593964 100.66011047 16.28184509 C100.65828475 10.47882995 101.70467169 5.64845574 105.625 1.125 C110.4866031 -1.17786463 115.17871358 -1.54982232 120.3125 0 C124.12107638 2.8342894 126.55274545 6.35269516 127.3470459 11.0541687 C127.45986253 13.30615982 127.45080758 15.52338877 127.390625 17.77734375 C127.38496521 18.58869278 127.37930542 19.40004181 127.37347412 20.23597717 C127.3512492 22.8037755 127.30108235 25.37013015 127.25 27.9375 C127.2299169 29.68813076 127.21166931 31.43878359 127.1953125 33.18945312 C127.15143044 37.46018378 127.08250275 41.72984793 127 46 C127.73033447 45.83540283 128.46066895 45.67080566 129.21313477 45.5012207 C146.33618182 42.42162232 164.94170014 47.24118018 179 57 C193.69556916 67.99256521 202.15549772 84.09818673 205 102 C205.64092122 107.98507312 205.86076735 113.98514942 206 120 C206.86689453 119.98952637 207.73378906 119.97905273 208.62695312 119.96826172 C211.87726847 119.93395187 215.12749074 119.90899077 218.37792969 119.89013672 C219.77835142 119.88014752 221.17875268 119.86655146 222.57910156 119.84912109 C241.39960199 119.62091246 241.39960199 119.62091246 246.9375 124.6875 C249.26671103 128.42835408 250 130.60077557 250 135 C248.40348805 140.23301139 246.62227729 143.08704482 242 146 C239.09042745 146.41017617 236.54468082 146.60468409 233.63671875 146.609375 C232.84473587 146.62591125 232.05275299 146.64244751 231.23677063 146.65948486 C228.72026743 146.70786572 226.20436804 146.72931275 223.6875 146.75 C221.97588124 146.77816813 220.26429049 146.80809675 218.55273438 146.83984375 C214.36821459 146.91692167 210.18558495 146.95752831 206 147 C205.67 158.55 205.34 170.1 205 182 C216.20364227 181.84221418 216.20364227 181.84221418 227.40649414 181.63964844 C228.82436918 181.62795202 230.24225778 181.61776245 231.66015625 181.609375 C232.38005737 181.58891113 233.0999585 181.56844727 233.8416748 181.54736328 C239.31704662 181.5436341 242.47844848 182.89264812 247 186 C249.68483185 190.02352917 250.1146955 194.01689573 249.5625 198.75 C247.5780309 202.87769572 245.74715269 204.39993487 242 207 C238.36797011 208.21067663 235.0488065 208.12455576 231.26953125 208.09765625 C230.60417358 208.09664917 229.93881592 208.09564209 229.2532959 208.09460449 C226.77301301 208.08938106 224.29275474 208.07541978 221.8125 208.0625 C216.264375 208.041875 210.71625 208.02125 205 208 C205 219.55 205 231.1 205 243 C208.320625 242.814375 211.64125 242.62875 215.0625 242.4375 C240.38857625 241.24597163 240.38857625 241.24597163 245.8125 245 C248.64762737 248.88817468 249.88420628 252.17801885 250 257 C248.51901205 262.31413324 246.55686283 264.97700404 242 268 C238.96875 268.609375 238.96875 268.609375 235.5 268.75 C234.19933594 268.80542969 232.89867187 268.86085938 231.55859375 268.91796875 C223.04036371 269.10751804 214.51941152 269.08001181 206 269 C205.96036133 269.56807373 205.92072266 270.13614746 205.87988281 270.72143555 C204.28771803 292.47735577 199.92946779 310.98511246 183 326 C169.48181257 336.90843729 154.7085396 340.20752181 137.5625 340.0625 C136.54478516 340.05798828 135.52707031 340.05347656 134.47851562 340.04882812 C131.98561491 340.03712437 129.49283926 340.02072848 127 340 C127.02094727 341.05388916 127.04189453 342.10777832 127.06347656 343.19360352 C127.13622895 347.12770847 127.18192674 351.06175472 127.21972656 354.99633789 C127.23976221 356.69468202 127.26699885 358.39295785 127.30175781 360.09106445 C127.35063415 362.5413504 127.37304872 364.9907194 127.390625 367.44140625 C127.41127014 368.19273331 127.43191528 368.94406036 127.45318604 369.71815491 C127.45550935 375.25659923 126.13820004 378.42339794 123 383 C119.58250695 385.94284124 116.50742062 386.54360033 111.9921875 386.34765625 C108.57258449 385.750902 106.56799621 384.269392 104 382 C100.88712075 377.05680118 100.59150014 373.18351799 100.70703125 367.5390625 C100.71127609 366.74849457 100.71552094 365.95792664 100.71989441 365.1434021 C100.73658699 362.6369106 100.77422017 360.13124539 100.8125 357.625 C100.82755908 355.91798042 100.84124534 354.21094815 100.85351562 352.50390625 C100.88389855 348.33536885 100.94263393 344.1686011 101 340 C89.45 340 77.9 340 66 340 C66.04640625 342.67351562 66.0928125 345.34703125 66.140625 348.1015625 C66.17185741 350.70294295 66.19612414 353.30430217 66.21972656 355.90576172 C66.23979033 357.70794081 66.26704813 359.51005521 66.30175781 361.31201172 C66.35050829 363.90869136 66.37302082 366.50450729 66.390625 369.1015625 C66.41127014 369.9017984 66.43191528 370.7020343 66.45318604 371.52651978 C66.45529114 376.82429111 65.49879556 379.7862261 62 384 C58.01365936 386.71795953 53.660214 386.79150948 49 386 C45.74538057 384.33484587 43.58637098 382.09978853 41.85205078 378.84692383 C40.72873622 375.09363699 40.75212829 371.51479339 40.8046875 367.63671875 C40.80893234 366.44874443 40.80893234 366.44874443 40.81326294 365.23677063 C40.82441137 362.72019001 40.84950578 360.20397211 40.875 357.6875 C40.88503671 355.97591662 40.89416136 354.26432763 40.90234375 352.55273438 C40.92262729 348.36823918 40.96178518 344.18452312 41 340 C29.78 340.33 18.56 340.66 7 341 C7.07877988 350.8419106 7.07877988 350.8419106 7.18017578 360.68359375 C7.24741647 377.35928564 7.24741647 377.35928564 2.5 382.9375 C-1.32553756 386.09356849 -3.82375808 386.39844195 -8.67578125 386.3515625 C-12.65279302 385.74999769 -14.28353165 383.91523432 -17 381 C-19.67313332 377.17733976 -19.25389632 372.99165724 -19.1953125 368.515625 C-19.19106766 367.29223419 -19.19106766 367.29223419 -19.18673706 366.04412842 C-19.17556558 363.44593472 -19.15046675 360.84808905 -19.125 358.25 C-19.11496627 356.48568207 -19.10584111 354.72135872 -19.09765625 352.95703125 C-19.07563619 348.63788727 -19.04112733 344.31900259 -19 340 C-19.59312988 340.01571045 -20.18625977 340.0314209 -20.79736328 340.04760742 C-35.93427295 340.39475737 -50.3479498 340.47958069 -64 333 C-64.87140625 332.52949219 -65.7428125 332.05898438 -66.640625 331.57421875 C-79.78711303 323.88095271 -87.45694871 312.88859498 -93 299 C-93 297.68 -93 296.36 -93 295 C-93.66 294.67 -94.32 294.34 -95 294 C-95.91553819 288.70974224 -96.11932372 283.59228316 -96.09765625 278.21875 C-96.09553383 277.17031921 -96.09553383 277.17031921 -96.09336853 276.10070801 C-96.0878367 273.90042571 -96.07529777 271.70025077 -96.0625 269.5 C-96.05747616 267.99479315 -96.05291482 266.48958468 -96.04882812 264.984375 C-96.03788977 261.32288265 -96.02067359 257.66145183 -96 254 C-97.91904648 254.2426207 -97.91904648 254.2426207 -99.87686157 254.49014282 C-104.91967591 255.04764996 -109.90062892 255.15170534 -114.97021484 255.15771484 C-116.39873276 255.16533592 -116.39873276 255.16533592 -117.85610962 255.17311096 C-119.90708905 255.18374513 -121.95807957 255.19239206 -124.00907516 255.19923019 C-127.25355714 255.21109333 -130.49791041 255.23055931 -133.74234009 255.25234985 C-142.96083335 255.31375718 -152.17930746 255.36816968 -161.39794922 255.40136719 C-167.04942051 255.42226084 -172.7006467 255.45750408 -178.3519783 255.50212479 C-180.50418857 255.51630847 -182.65644207 255.52501254 -184.80869675 255.52817917 C-187.80811222 255.53306469 -190.80686969 255.55615583 -193.80615234 255.58349609 C-194.69759949 255.58048996 -195.58904663 255.57748383 -196.50750732 255.5743866 C-197.32321198 255.58547958 -198.13891663 255.59657257 -198.9793396 255.60800171 C-199.68757055 255.61131186 -200.39580151 255.614622 -201.125494 255.61803246 C-203.60507105 256.12329515 -204.48707367 256.99737636 -206 259 C-206.66666667 262.5 -206.66666667 262.5 -206 266 C-201.98067575 269.34782138 -198.01251767 269.44210748 -192.99682617 269.43237305 C-192.20605682 269.4425647 -191.41528748 269.45275635 -190.60055542 269.46325684 C-187.99795409 269.49334772 -185.39572106 269.50264667 -182.79296875 269.51171875 C-180.98406251 269.52856835 -179.17516795 269.54671898 -177.36628723 269.56611633 C-172.61361341 269.61359194 -167.86098698 269.64341708 -163.1081543 269.66955566 C-158.25495036 269.69937348 -153.40190969 269.74589963 -148.54882812 269.79101562 C-139.03263753 269.87702099 -129.5164133 269.94437861 -120 270 C-119.89763081 276.5977638 -119.82813289 283.19531891 -119.78027344 289.79370117 C-119.76029807 292.03303684 -119.73310818 294.27232129 -119.69824219 296.51147461 C-119.41681233 315.06515192 -120.48838048 330.88849618 -133.40625 345.50390625 C-157.51718383 368.13745443 -193.80094001 368.68569363 -225 368 C-225.66531738 367.98743164 -226.33063477 367.97486328 -227.01611328 367.96191406 C-253.53061647 367.34309498 -279.08138678 360.63130071 -298 341 C-312.68017747 323.81487161 -313.31711137 304.39487152 -313.30078125 282.953125 C-313.30467693 280.81142088 -313.30901337 278.66971752 -313.31376648 276.52801514 C-313.321197 272.05315642 -313.3209609 267.57837665 -313.31567383 263.10351562 C-313.30988939 257.41061567 -313.32680117 251.71804215 -313.3500185 246.02519608 C-313.36485725 241.60498207 -313.36561374 237.1848448 -313.36250877 232.76461029 C-313.3630171 230.66776637 -313.36816131 228.57091758 -313.37832069 226.47409821 C-313.50908967 195.70968286 -313.50908967 195.70968286 -306.4375 182.6875 C-306.09162842 182.03072266 -305.74575684 181.37394531 -305.3894043 180.69726562 C-298.07982614 167.42422643 -287.05355021 158.34786717 -272.61502075 153.91677856 C-265.37904836 151.89337534 -258.7776501 151.46695435 -251.30029297 151.57763672 C-250.01054565 151.5802652 -248.72079834 151.58289368 -247.39196777 151.58560181 C-244.61787259 151.5914044 -241.84426223 151.60967208 -239.07030869 151.6382103 C-234.67205387 151.68330745 -230.27397028 151.69901439 -225.8755188 151.71121216 C-218.91319865 151.73385068 -211.95114225 151.7752102 -204.98896801 151.82500756 C-192.52945128 151.91398441 -180.06984498 151.98032683 -167.61009324 152.02549565 C-163.24953409 152.04216839 -158.88924128 152.0700673 -154.52881217 152.10744071 C-152.46541815 152.1237204 -150.4020579 152.13532682 -148.33862305 152.14498901 C-145.83947833 152.15690554 -143.34035146 152.17605871 -140.84133911 152.20440674 C-127.64076608 152.2400149 -116.16977446 150.93419439 -106 142 C-104.00655562 139.43470616 -104.00655562 139.43470616 -102.3125 136.625 C-101.73113281 135.70976562 -101.14976562 134.79453125 -100.55078125 133.8515625 C-96.78955744 126.93545827 -96.73845124 120.83853279 -96.625 113.125 C-96.0469436 92.99349412 -91.30417011 76.86910574 -77 62 C-63.54767363 50.16522886 -48.92030282 45.88083155 -31.4375 45.375 C-29.78137695 45.31699219 -29.78137695 45.31699219 -28.09179688 45.2578125 C-25.39468875 45.16440616 -22.6975723 45.07863524 -20 45 C-19.98598145 43.36587158 -19.98598145 43.36587158 -19.97167969 41.69873047 C-19.93167019 37.63923946 -19.86588171 33.58049759 -19.79248047 29.52148438 C-19.76433416 27.76800188 -19.74308815 26.01439401 -19.72900391 24.26074219 C-19.70748573 21.73307401 -19.66079298 19.20690316 -19.609375 16.6796875 C-19.60814636 15.90132538 -19.60691772 15.12296326 -19.60565186 14.3210144 C-19.46721736 9.12364055 -18.41388775 6.13313646 -15 2 C-10.11091706 -1.5246877 -5.64091 -1.6548057 0 0 Z M-60.875 83.875 C-70.45270427 95.79642485 -70.29857628 109.31589053 -70.25878906 123.97094727 C-70.26150403 125.66075796 -70.26506779 127.35056746 -70.26940918 129.04037476 C-70.27847463 133.60019663 -70.27501338 138.15992731 -70.26865101 142.71975064 C-70.26356143 147.50766307 -70.26829057 152.29556808 -70.27142334 157.08348083 C-70.27505404 165.12036531 -70.27028707 173.15721293 -70.26074219 181.1940918 C-70.24985567 190.46736018 -70.25338828 199.74054062 -70.264395 209.01380688 C-70.27348901 216.99714137 -70.27474294 224.98044949 -70.26951766 232.9637875 C-70.26641005 237.7225472 -70.26595532 242.48126565 -70.27259064 247.24002266 C-70.27839442 251.71429027 -70.27431201 256.18844514 -70.26280212 260.66270065 C-70.26017186 262.29847845 -70.26089249 263.93426585 -70.26532745 265.57003975 C-70.30076796 279.97680704 -69.58858068 293.15709323 -59.375 304.3125 C-51.09808702 312.05642995 -41.33387926 314.15822083 -30.3157196 314.13371277 C-29.18436914 314.1371111 -29.18436914 314.1371111 -28.03016311 314.14057809 C-25.51317567 314.14688748 -22.9962425 314.1460907 -20.47924805 314.14526367 C-18.67032807 314.14825708 -16.86140873 314.15166003 -15.05249023 314.15544128 C-10.14536952 314.16426714 -5.23826625 314.16661881 -0.33113837 314.16725707 C2.73673893 314.16796839 5.80461182 314.17010428 8.87248802 314.17275429 C19.58125464 314.18200313 30.29000882 314.18608976 40.9987793 314.18530273 C50.97120966 314.18470211 60.9435859 314.19525216 70.91600257 314.2110464 C79.48604725 314.2241345 88.05607426 314.22948609 96.62612885 314.22884732 C101.74096371 314.22859271 106.85575046 314.23142401 111.97057533 314.24202538 C116.78292177 314.25172768 121.59517431 314.25177091 126.40752411 314.24450874 C128.16950048 314.24346554 129.93148276 314.24581002 131.69344902 314.2518692 C145.42938683 314.29603014 157.39144558 313.95141286 168.046875 304.109375 C179.05308004 292.16246867 179.30118641 278.65893957 179.2746582 263.19018555 C179.27901227 261.50538916 179.28419773 259.82059474 179.29014587 258.13580322 C179.30347335 253.58399226 179.30412147 249.03226465 179.30158257 244.48043799 C179.30050846 240.66866134 179.30540752 236.85690125 179.310188 233.04512817 C179.32126188 224.04545356 179.32173274 215.04582069 179.31567383 206.04614258 C179.30963726 196.7893985 179.3219419 187.53280655 179.3432439 178.27608842 C179.36090956 170.30376526 179.36685339 162.33149031 179.36360615 154.35914832 C179.36180083 149.60863435 179.36435387 144.85822887 179.37832069 140.10773277 C179.39097529 135.63671416 179.38888344 131.16593112 179.37590981 126.69491577 C179.37356088 125.06362132 179.37621753 123.43230988 179.38453293 121.80103493 C179.45371579 107.16179441 178.35963984 93.34841444 168.18359375 81.96875 C160.11049274 74.27076277 150.33188369 71.84215207 139.43597412 71.86628723 C138.30590529 71.8628889 138.30590529 71.8628889 137.15300679 71.85942191 C134.63291334 71.85310061 132.11287393 71.85391008 129.59277344 71.85473633 C127.78400096 71.85174363 125.97522913 71.84834085 124.16645813 71.84455872 C119.25514611 71.8357248 114.34385151 71.83338083 109.43253231 71.83274293 C106.36248277 71.83203197 103.29243766 71.82989676 100.22238922 71.82724571 C89.50714334 71.81799363 78.7919099 71.81391057 68.07666016 71.81469727 C58.09686618 71.81529772 48.11712632 71.80475193 38.13734603 71.7889536 C29.56307527 71.77586515 20.98882216 71.77051393 12.41454148 71.77115268 C7.29633828 71.77140732 2.17818316 71.76857473 -2.94001007 71.75797462 C-7.7564471 71.74827195 -12.57279033 71.74822935 -17.38923073 71.75549126 C-19.15281881 71.75653447 -20.91641279 71.75418991 -22.67999077 71.7481308 C-37.41565922 71.70079999 -50.23594148 72.32662024 -60.875 83.875 Z M-176.5390625 301.36328125 C-180.74324245 306.12064278 -182.49689675 310.51360808 -182.31640625 316.87890625 C-181.54901686 322.02325736 -179.15894162 325.89759212 -175.4375 329.4375 C-170.54293445 332.57504202 -165.64804054 332.61802267 -160 332 C-155.14054247 330.31294305 -151.83405593 327.2510839 -149 323 C-147.24230773 317.72692318 -146.88223733 311.84310587 -148.94140625 306.60546875 C-151.29033735 302.63658516 -153.60328717 299.69872996 -158 298 C-164.73325383 296.35868861 -171.14532083 296.58557606 -176.5390625 301.36328125 Z " fill="#000000" transform="translate(623,177)"/>
<path d="M0 0 C12.69363003 13.42213402 19.35457194 30.97984956 19.4230957 49.32958984 C19.4296669 50.10455811 19.4362381 50.87952637 19.44300842 51.67797852 C19.4626367 54.23063275 19.4743855 56.78322821 19.484375 59.3359375 C19.48845053 60.21513477 19.49252605 61.09433205 19.49672508 62.00017166 C19.51754926 66.66108205 19.53186228 71.32196339 19.54125977 75.98291016 C19.55226888 80.75460453 19.58661518 85.52582549 19.62643147 90.29735374 C19.65281411 94.00213374 19.66097097 97.70680506 19.66454124 101.41167068 C19.66935778 103.16802768 19.68082724 104.9243815 19.69957924 106.68064499 C19.89618933 126.32813401 16.59017487 144.49950023 2.453125 159.19921875 C1.36064453 160.27623047 1.36064453 160.27623047 0.24609375 161.375 C-0.30691406 161.93832031 -0.85992187 162.50164062 -1.4296875 163.08203125 C-11.47558427 172.52966121 -23.8322556 176.57961992 -37.33203125 176.7890625 C-38.15282669 176.80838333 -38.97362213 176.82770416 -39.81929016 176.84761047 C-42.54738996 176.9081351 -45.27551923 176.95439454 -48.00390625 177 C-49.9478384 177.0396426 -51.89176736 177.07944177 -53.83569336 177.11938477 C-65.84651672 177.34541373 -77.85473108 177.39491411 -89.8671875 177.36328125 C-90.54947041 177.36176308 -91.23175331 177.3602449 -91.93471146 177.35868073 C-104.21541601 177.33124916 -104.21541601 177.33124916 -110.34313965 177.28179932 C-114.16886187 177.25143456 -117.99451443 177.2326305 -121.8203125 177.21484375 C-122.94995926 177.20133377 -124.07960602 177.18782379 -125.2434845 177.17390442 C-141.13019188 177.12479226 -154.96008926 180.35249094 -166.88671875 191.33984375 C-179.88860554 205.00912777 -182.19396547 221.45179983 -182.265625 239.515625 C-182.28250874 241.13516568 -182.30066382 242.75469356 -182.32002258 244.37420654 C-182.36712825 248.5957641 -182.39719078 252.81726972 -182.42346191 257.03900146 C-182.45346869 261.36334487 -182.4999288 265.6875099 -182.54492188 270.01171875 C-182.63050513 278.46605735 -182.69804802 286.92041294 -182.75390625 295.375 C-189.40666269 295.45152631 -196.05930417 295.5037985 -202.71240234 295.53979492 C-204.97221112 295.55481295 -207.23199109 295.57523345 -209.49169922 295.60131836 C-212.75365339 295.63800995 -216.01521972 295.65479675 -219.27734375 295.66796875 C-220.2756723 295.68345261 -221.27400085 295.69893646 -222.30258179 295.71488953 C-235.89909347 295.71809797 -247.518501 290.72656983 -257.37890625 281.375 C-263.56521734 274.90466889 -273.75390625 263.65984642 -273.75390625 254.375 C-274.41390625 254.045 -275.07390625 253.715 -275.75390625 253.375 C-276.48413086 251.54345703 -276.48413086 251.54345703 -277.15625 249.1328125 C-277.40544189 248.24118408 -277.65463379 247.34955566 -277.91137695 246.4309082 C-278.16878662 245.4637085 -278.42619629 244.49650879 -278.69140625 243.5 C-278.95719482 242.50637451 -279.2229834 241.51274902 -279.49682617 240.48901367 C-289.77937532 200.92595199 -290.01428541 152.36574685 -270.62890625 115.55859375 C-263.83837676 104.02884056 -254.65576697 95.01974197 -242.75390625 88.9375 C-242.11388672 88.60733887 -241.47386719 88.27717773 -240.81445312 87.93701172 C-231.26662171 83.33410914 -221.46927533 83.07695509 -211.0300293 83.07202148 C-209.67707318 83.06434357 -208.32412177 83.05579408 -206.97117615 83.04644775 C-204.07824386 83.02829265 -201.18537458 83.01617606 -198.29239464 83.00890923 C-193.71567785 82.99734628 -189.13910055 82.9718602 -184.56245422 82.94459534 C-177.32620143 82.90309001 -170.08994176 82.8706051 -162.85362703 82.84212118 C-149.88376291 82.79098949 -136.91395745 82.72888441 -123.94419318 82.65678078 C-119.39617393 82.63191344 -114.84817311 82.61245851 -110.30011117 82.59739864 C-107.47336034 82.58718246 -104.64663851 82.57303727 -101.81991005 82.55792236 C-99.88748044 82.54885004 -97.95502974 82.54468325 -96.02258301 82.54066467 C-94.86900803 82.53376617 -93.71543304 82.52686768 -92.52690125 82.51976013 C-91.02680779 82.51397776 -91.02680779 82.51397776 -89.49640942 82.50807858 C-86.8188248 82.37815014 -84.36311374 81.97382396 -81.75390625 81.375 C-81.0234018 77.38836197 -81.0234018 77.38836197 -80.75390625 73.375 C-82.06708887 71.47541919 -82.06708887 71.47541919 -83.75390625 70.375 C-83.75390625 69.715 -83.75390625 69.055 -83.75390625 68.375 C-85.4230735 68.37833092 -85.4230735 68.37833092 -87.1259613 68.38172913 C-97.58882755 68.40195955 -108.05168986 68.41697166 -118.51457119 68.42681217 C-123.89424387 68.43204125 -129.27390083 68.43913935 -134.65356445 68.45043945 C-139.84065468 68.46126745 -145.02772974 68.46727665 -150.2148304 68.46987724 C-152.19846905 68.47173165 -154.18210683 68.47535256 -156.16573906 68.48073006 C-158.93399761 68.48793932 -161.70219263 68.48899099 -164.47045898 68.48852539 C-165.29907944 68.49212067 -166.12769989 68.49571594 -166.98143005 68.49942017 C-172.63985409 68.48905216 -172.63985409 68.48905216 -173.75390625 67.375 C-173.86263602 65.89902058 -173.90293848 64.41791767 -173.91503906 62.93798828 C-173.92464661 61.99255157 -173.93425415 61.04711487 -173.94415283 60.07302856 C-173.94840271 59.04088226 -173.95265259 58.00873596 -173.95703125 56.9453125 C-173.96273132 55.88520966 -173.9684314 54.82510681 -173.9743042 53.73287964 C-173.98377747 51.47817996 -173.99029736 49.2234663 -173.99414062 46.96875 C-174.00376767 43.54922432 -174.03473614 40.1303199 -174.06640625 36.7109375 C-174.07294403 34.51823273 -174.07819145 32.32552366 -174.08203125 30.1328125 C-174.09437805 29.12090851 -174.10672485 28.10900452 -174.1194458 27.06643677 C-174.08236343 14.99488127 -170.9490368 4.27077032 -162.78515625 -4.81640625 C-127.52792974 -38.47683808 -34.04056403 -32.24322225 0 0 Z M-140.50390625 15.25 C-144.24980423 20.45263608 -145.7066829 24.91993817 -144.75390625 31.375 C-142.83712783 37.27780626 -139.78058749 40.84562807 -134.75390625 44.375 C-129.65784111 46.07368838 -123.76101257 46.38653119 -118.6171875 44.65625 C-113.21309838 41.74906106 -110.4601466 38.30111004 -108.37890625 32.625 C-107.10018178 26.57389311 -108.68910654 21.46516239 -111.44140625 16.0625 C-114.99005487 11.93839485 -118.07788123 9.72117184 -123.44140625 9.02734375 C-130.76776618 8.798395 -135.30683278 9.81669591 -140.50390625 15.25 Z " fill="#000000" transform="translate(483.75390625,137.625)"/>
<path d="M0 0 C7.92 0 15.84 0 24 0 C28.49894178 8.99788355 28.49894178 8.99788355 29.91943359 12.46557617 C30.2401181 13.24386276 30.56080261 14.02214935 30.89120483 14.82402039 C31.22359161 15.63877335 31.55597839 16.45352631 31.8984375 17.29296875 C32.4346019 18.59479851 32.4346019 18.59479851 32.9815979 19.92292786 C34.1155826 22.67662365 35.24574677 25.43186084 36.375 28.1875 C41.03807165 39.56382165 45.69705585 50.9028133 51 62 C51.20996109 61.48651505 51.41992218 60.97303009 51.63624573 60.44398499 C53.85921801 55.00755825 56.0824847 49.57125198 58.3059082 44.13500977 C59.13117615 42.11713583 59.9563737 40.09923309 60.78149414 38.08129883 C62.76588755 33.22828078 64.75122955 28.37565608 66.73876953 23.52392578 C68.20236958 19.9511138 69.66147465 16.37652384 71.11669922 12.80029297 C71.75352666 11.24053782 72.39040494 9.68080343 73.02734375 8.12109375 C73.31646133 7.40752213 73.60557892 6.6939505 73.90345764 5.95875549 C75.88671658 1.11328342 75.88671658 1.11328342 77 0 C85.25 0 93.5 0 102 0 C102 31.68 102 63.36 102 96 C95.4 96 88.8 96 82 96 C82.020625 92.98875 82.04125 89.9775 82.0625 86.875 C82.11647388 69.57834533 81.50809158 52.2872756 81 35 C80.26680542 36.81419434 80.26680542 36.81419434 79.51879883 38.66503906 C77.6836684 43.20533878 75.84769141 47.74529579 74.01147461 52.28515625 C73.22088347 54.24014277 72.43051382 56.19521888 71.64038086 58.15039062 C67.4760166 68.45462401 63.30402535 78.75314205 59 89 C53.72 89 48.44 89 43 89 C38.51010162 79.45635553 34.34097414 69.81940701 30.3034668 60.07788086 C29.30623976 57.67239923 28.30477412 55.26871465 27.30273438 52.86523438 C26.65600244 51.30999876 26.00950951 49.75466372 25.36328125 48.19921875 C25.06948074 47.49383469 24.77568024 46.78845062 24.47297668 46.06169128 C24.19225815 45.38350845 23.91153961 44.70532562 23.62231445 44.0065918 C23.38060013 43.42403122 23.1388858 42.84147064 22.8898468 42.24125671 C21.54233267 38.84727351 20.28219764 35.4191937 19 32 C18.67 53.12 18.34 74.24 18 96 C12.06 96 6.12 96 0 96 C0 64.32 0 32.64 0 0 Z " fill="#010000" transform="translate(126,624)"/>
<path d="M0 0 C5.59519532 4.68338571 10.07246177 9.97664143 12.13671875 17.08203125 C12.13671875 19.39203125 12.13671875 21.70203125 12.13671875 24.08203125 C5.86671875 24.08203125 -0.40328125 24.08203125 -6.86328125 24.08203125 C-7.85328125 22.10203125 -8.84328125 20.12203125 -9.86328125 18.08203125 C-14.85421218 13.46542014 -18.76756581 12.78075729 -25.35546875 12.8671875 C-28.81149404 13.16326443 -31.03754641 14.08334075 -33.86328125 16.08203125 C-36.31870376 19.01269683 -36.89177888 20.36959044 -36.73828125 24.20703125 C-35.81051181 27.25541656 -35.24260719 28.09158511 -32.86328125 30.08203125 C-25.56908378 33.77176883 -17.52364005 35.66564407 -9.63085938 37.6171875 C-0.83686035 39.9665806 6.74613712 44.17136173 11.9765625 51.8203125 C15.35448593 58.40555716 15.81174642 65.55126125 14.015625 72.66796875 C10.99245844 80.97159958 5.81860603 85.96295031 -1.86328125 90.08203125 C-2.4665625 90.41074219 -3.06984375 90.73945312 -3.69140625 91.078125 C-15.25284462 96.33103939 -29.37353812 94.47134339 -40.98828125 90.45703125 C-49.92268314 86.57930197 -55.23547614 80.67981974 -58.98828125 71.79296875 C-59.92152614 68.9015761 -60.44024858 66.08732584 -60.86328125 63.08203125 C-57.63534328 62.84874039 -54.40956893 62.70735451 -51.17578125 62.58203125 C-49.80776367 62.48148438 -49.80776367 62.48148438 -48.41210938 62.37890625 C-45.68466127 62.29956231 -43.49080109 62.33123077 -40.86328125 63.08203125 C-39.0504931 64.97307886 -38.00298981 66.74524614 -36.88134766 69.10546875 C-35.54093497 71.7078623 -33.76687704 73.16518862 -31.15234375 74.4609375 C-24.78921114 76.187453 -17.59133309 76.2389037 -11.51953125 73.6640625 C-8.86605836 72.2870575 -8.86605836 72.2870575 -7.42578125 70.33203125 C-6.56839709 66.90249461 -6.95219709 64.48341211 -7.86328125 61.08203125 C-11.56840992 57.41853324 -15.51338475 55.96301918 -20.42578125 54.58203125 C-21.85693352 54.15418964 -23.28792187 53.72579936 -24.71875 53.296875 C-26.10007921 52.8913094 -27.48157942 52.48632558 -28.86328125 52.08203125 C-38.73686674 49.15779861 -49.28020941 46.03154732 -54.96875 36.78515625 C-58.52913357 30.00643469 -58.97584717 22.86324806 -57.24609375 15.4296875 C-54.6101229 7.86001901 -50.07523906 2.48374336 -43.109375 -1.48828125 C-29.65170612 -7.896695 -12.75306083 -8.54263692 0 0 Z " fill="#010100" transform="translate(383.86328125,773.91796875)"/>
<path d="M0 0 C6.27 0 12.54 0 19 0 C19.62198551 5.59786963 20.12561313 10.6028966 20.12939453 16.14599609 C20.13202301 17.12631302 20.13202301 17.12631302 20.13470459 18.12643433 C20.13905648 20.25879687 20.13620537 22.3910743 20.1328125 24.5234375 C20.13348826 26.03447485 20.13446053 27.54551209 20.13571167 29.05654907 C20.13718036 32.21853677 20.13506385 35.38049609 20.13037109 38.54248047 C20.12472265 42.5373399 20.12801202 46.53213197 20.13382339 50.52698898 C20.15327931 66.38365978 20.07113357 82.1710262 19 98 C13.06 98.33 7.12 98.66 1 99 C0.34 96.69 -0.32 94.38 -1 92 C-1.46148438 92.40992188 -1.92296875 92.81984375 -2.3984375 93.2421875 C-9.08379179 98.76487148 -15.38349347 100.36967588 -24 99.9375 C-32.993884 98.68286728 -39.57318945 94.40539436 -45.30859375 87.4765625 C-47.9691263 83.58100213 -49.62582801 79.49517277 -51 75 C-51.19207031 74.41089844 -51.38414062 73.82179688 -51.58203125 73.21484375 C-53.8557375 61.16632559 -52.42228664 48.13452583 -45.51171875 37.8828125 C-40.12995428 31.17994306 -33.87704283 26.59658016 -25.16796875 25.53125 C-16.77270144 25.46534015 -10.07095282 25.99267289 -3 31 C-2.34 31.66 -1.68 32.32 -1 33 C-0.67 23.76 -0.34 14.52 0 5 C-0.66 4.67 -1.32 4.34 -2 4 C-1.34 4 -0.68 4 0 4 C0 2.68 0 1.36 0 0 Z M-29.80078125 50.18359375 C-33.33209046 55.53231943 -32.60300567 62.89281467 -32 69 C-30.45070234 74.43702121 -28.22237729 78.76374215 -23.25 81.6875 C-18.70706977 83.49610053 -14.66018591 83.3228357 -10 82 C-5.18681352 79.72962902 -2.86431237 77.0240588 -0.75390625 72.2734375 C1.77260907 64.65461927 1.61258788 57.24624502 -1.96875 50.0546875 C-4.60449888 45.79830924 -7.30398953 43.87534211 -12.0859375 42.43359375 C-20.03193723 40.63358157 -24.82125751 44.34147535 -29.80078125 50.18359375 Z " fill="#000000" transform="translate(586,768)"/>
<path d="M0 0 C3.1875 1.75 3.1875 1.75 6 4 C6.94875 4.70125 7.8975 5.4025 8.875 6.125 C9.57625 6.74375 10.2775 7.3625 11 8 C11 8.66 11 9.32 11 10 C11.57555634 10.25122116 12.15111267 10.50244232 12.74411011 10.76127625 C15.29986968 12.16466039 17.02612384 13.76516246 19.09423828 15.81958008 C19.88831085 16.60412064 20.68238342 17.38866119 21.5005188 18.19697571 C22.77256668 19.4703907 22.77256668 19.4703907 24.0703125 20.76953125 C24.94775116 21.64268478 25.82518982 22.51583832 26.72921753 23.41545105 C29.05688848 25.7359109 31.37934359 28.06145706 33.70056152 30.3883667 C35.12290401 31.81040446 36.55000976 33.2274708 37.97900391 34.64282227 C40.7255446 37.36488695 43.46176407 40.09692639 46.1953125 42.83203125 C47.04739288 43.67490189 47.89947327 44.51777252 48.77737427 45.38618469 C49.56514252 46.18018173 50.35291077 46.97417877 51.16455078 47.79223633 C51.85864044 48.48569656 52.5527301 49.1791568 53.26785278 49.89363098 C55.78074746 52.94942407 56.79817683 55.88997259 57.5 59.75 C56.10405564 68.82363833 47.65258456 76.26872661 41 82 C40.34 82 39.68 82 39 82 C38.72886383 82.59547134 38.45772766 83.19094269 38.17837524 83.80445862 C37.01659496 85.96908037 35.86642987 87.39251245 34.14599609 89.12866211 C33.57134613 89.71284409 32.99669617 90.29702606 32.40463257 90.89891052 C31.7838382 91.51879349 31.16304382 92.13867645 30.5234375 92.77734375 C29.87935944 93.42570694 29.23528137 94.07407013 28.57168579 94.74208069 C27.20740822 96.11209588 25.84050928 97.47950496 24.47119141 98.84448242 C22.39465476 100.917875 20.33175059 103.00417588 18.26953125 105.09179688 C16.93831235 106.42529063 15.60630546 107.75799829 14.2734375 109.08984375 C13.66478851 109.70770248 13.05613953 110.32556122 12.42904663 110.96214294 C2.5596639 120.72795735 2.5596639 120.72795735 -3.44204712 121.18663025 C-8.35189974 120.91521007 -11.55984452 119.64864975 -15 116 C-17.50811133 111.70038058 -17.9982635 107.87341237 -17 103 C-12.97975042 95.60584322 -5.97371353 89.80084079 0 84 C0.86367188 83.09765625 1.72734375 82.1953125 2.6171875 81.265625 C5 79 5 79 8 78 C8 77.34 8 76.68 8 76 C8.66 76 9.32 76 10 76 C10 75.34 10 74.68 10 74 C10.66 74 11.32 74 12 74 C12.495 72.515 12.495 72.515 13 71 C14.64639965 69.64172029 16.31295807 68.30745749 18 67 C18.33 66.34 18.66 65.68 19 65 C19.66 65 20.32 65 21 65 C21 64.34 21 63.68 21 63 C22.5 61.375 22.5 61.375 24 60 C18.89438922 53.77559451 13.26539375 48.11266353 7.56811523 42.43774414 C5.934216 40.80922682 4.3057585 39.175404 2.67773438 37.54101562 C1.62792481 36.49186655 0.57780526 35.44302756 -0.47265625 34.39453125 C-0.9529982 33.91216507 -1.43334015 33.42979889 -1.92823792 32.93281555 C-4.80785513 30.07289868 -7.82302677 27.51994168 -11 25 C-13.9452128 21.25898475 -17 16.86834805 -17 12 C-16.04806298 7.49416475 -14.7115925 4.66194652 -11.3125 1.5 C-7.30668259 -0.31395506 -4.32077259 -0.86588629 0 0 Z " fill="#000000" transform="translate(611,305)"/>
<path d="M0 0 C53.48648649 0 53.48648649 0 63 8 C69.84422559 16.60463939 72.76382878 25.65850476 71.75390625 36.6875 C70.80023624 42.22384976 69.11089771 46.33365344 66 51 C65.46375 51.845625 64.9275 52.69125 64.375 53.5625 C58.45838426 59.63481615 50.60108814 63.70257623 42.09887695 64.15405273 C38.75029548 64.19654806 35.4110915 64.17411297 32.0625 64.125 C28.081875 64.08375 24.10125 64.0425 20 64 C20 74.56 20 85.12 20 96 C13.4 96 6.8 96 0 96 C0 64.32 0 32.64 0 0 Z M20 17 C20 26.9 20 36.8 20 47 C24.7025 47.12375 24.7025 47.12375 29.5 47.25 C30.47130859 47.28641602 31.44261719 47.32283203 32.44335938 47.36035156 C38.44294981 47.43601767 43.09929727 46.62516718 48 43 C51.6742642 38.56905565 51.50148424 34.42991699 51.3515625 28.8828125 C50.75885634 24.02262201 48.7058327 21.44445511 45.0625 18.359375 C40.348665 16.26700946 35.7756228 16.68651405 30.6875 16.8125 C27.160625 16.874375 23.63375 16.93625 20 17 Z " fill="#010000" transform="translate(483,624)"/>
<path d="M0 0 C6.6 0 13.2 0 20 0 C20.33 11.55 20.66 23.1 21 35 C22.65 33.35 24.3 31.7 26 30 C32.22094821 25.94915 39.40515857 25.34048884 46.625 26.5625 C54.01744612 28.53468969 58.98453544 33.2342467 62.9921875 39.58203125 C66.07344216 46.97465386 66.27662858 54.47391184 66.1953125 62.37890625 C66.1924826 63.43158188 66.18965271 64.48425751 66.18673706 65.5688324 C66.17562562 68.90017516 66.15053798 72.23123977 66.125 75.5625 C66.11495852 77.83398047 66.10583472 80.10546519 66.09765625 82.37695312 C66.07571592 87.9180744 66.041249 93.45899019 66 99 C59.4 99 52.8 99 46 99 C45.96261719 95.83277344 45.92523437 92.66554688 45.88671875 89.40234375 C45.84045337 86.32097631 45.78923787 83.23972793 45.73754883 80.15844727 C45.70437883 78.02375578 45.67632242 75.88897827 45.65356445 73.75415039 C45.61987283 70.67817669 45.56754897 67.60298574 45.51171875 64.52734375 C45.50532883 63.57915268 45.4989389 62.63096161 45.49235535 61.65403748 C45.36905061 56.0450991 44.77363916 51.92447577 42 47 C38.21022225 44.66782908 35.82042216 43.98585479 31.375 44.0625 C27.0571342 45.26190717 24.23553757 46.95946387 21.88320923 50.84442139 C20.89005595 53.26833171 20.72423433 55.06311733 20.68115234 57.67675781 C20.66128265 58.59741028 20.64141296 59.51806274 20.62094116 60.46661377 C20.60361435 61.94493683 20.60361435 61.94493683 20.5859375 63.453125 C20.56657135 64.46848328 20.5472052 65.48384155 20.5272522 66.52996826 C20.46751901 69.76989365 20.42109572 73.00985468 20.375 76.25 C20.33681449 78.44793208 20.29776242 80.64584928 20.2578125 82.84375 C20.16019306 88.22908886 20.0805739 93.61427113 20 99 C13.4 99 6.8 99 0 99 C0 66.33 0 33.66 0 0 Z " fill="#010000" transform="translate(694,621)"/>
<path d="M0 0 C0.98347049 2.52149535 1.85497409 5.01217862 2.6796875 7.5859375 C2.93372345 8.35749176 3.1877594 9.12904602 3.44949341 9.92398071 C4.26507271 12.4054002 5.07039388 14.89000309 5.875 17.375 C6.93210245 20.61289649 7.99316154 23.84948895 9.0546875 27.0859375 C9.3090155 27.86378601 9.56334351 28.64163452 9.82537842 29.4430542 C11.76136985 35.34125007 13.81177636 41.19011237 16 47 C17.70711964 44.43932053 18.55798814 42.68838548 19.49633789 39.83569336 C19.77324966 39.00150375 20.05016144 38.16731415 20.33546448 37.30784607 C20.62823776 36.4109053 20.92101105 35.51396454 21.22265625 34.58984375 C21.52819931 33.66659805 21.83374237 32.74335236 22.14854431 31.79212952 C23.12412528 28.8419733 24.09359025 25.88985325 25.0625 22.9375 C26.03601228 19.98192921 27.0107975 17.02678683 27.98716736 14.07215881 C28.59450584 12.23313481 29.19999539 10.39349899 29.80348206 8.5532074 C30.07724167 7.72216995 30.35100128 6.89113251 30.63305664 6.03491211 C30.87351212 5.30227646 31.11396759 4.56964081 31.36170959 3.81480408 C32 2 32 2 33 0 C37.46648561 -1.06632314 41.80008379 -1.10565959 46.375 -1.0625 C47.62023437 -1.05347656 48.86546875 -1.04445313 50.1484375 -1.03515625 C51.55996094 -1.01775391 51.55996094 -1.01775391 53 -1 C51.64108343 5.82325565 49.6548628 12.13876629 47.21875 18.6484375 C46.84884949 19.65129791 46.47894897 20.65415833 46.09783936 21.68740845 C44.904389 24.9187987 43.70265195 28.14702424 42.5 31.375 C41.67637691 33.5949108 40.85313587 35.81496338 40.03027344 38.03515625 C38.80907392 41.32954228 37.58731758 44.62371141 36.36297607 47.91693115 C34.13878274 53.90369428 31.94383928 59.89919986 29.796875 65.9140625 C29.13268555 67.75991943 29.13268555 67.75991943 28.45507812 69.64306641 C27.68418454 71.79051105 26.92164279 73.94098388 26.16992188 76.09521484 C22.53318052 86.13765861 17.22803314 95.29783668 7.4375 100.3125 C0.59431921 102.24262791 -5.92536178 102.07860709 -13 102 C-13 96.72 -13 91.44 -13 86 C-11.288125 85.773125 -9.57625 85.54625 -7.8125 85.3125 C-2.75035801 84.37554827 -0.02446242 83.39034867 3 79 C4.91309176 74.7752557 5.30058246 72.87668877 3.78466797 68.45532227 C3.19158202 66.96949374 2.59653327 65.48444785 2 64 C1.35673172 62.27927521 0.71919838 60.55639915 0.08642578 58.83178711 C-0.42958694 57.43379128 -0.42958694 57.43379128 -0.95602417 56.0075531 C-2.51921869 51.76726692 -4.08113219 47.52651052 -5.64208984 43.28540039 C-6.45953828 41.06566367 -7.27788773 38.84625854 -8.09716797 36.62719727 C-12.58291443 24.47626656 -17.03559748 12.33272282 -21 0 C-17.87549468 -0.19645093 -14.75038555 -0.38063489 -11.625 -0.5625 C-10.29082031 -0.64661133 -10.29082031 -0.64661133 -8.9296875 -0.73242188 C-7.65351562 -0.80493164 -7.65351562 -0.80493164 -6.3515625 -0.87890625 C-5.56604004 -0.9260376 -4.78051758 -0.97316895 -3.97119141 -1.02172852 C-2 -1 -2 -1 0 0 Z " fill="#010000" transform="translate(580,649)"/>
<path d="M0 0 C7.20956838 8.2781803 9.46636934 18.71005028 9.2265625 29.44140625 C8.37102138 39.11971519 4.97348799 48.92196247 -2.3359375 55.58203125 C-11.67499547 62.80130304 -22.01805306 65.15067495 -33.7734375 63.70703125 C-39.56633883 62.62261132 -44.22085545 60.66510684 -49.0234375 57.26953125 C-50.26867187 56.41488281 -50.26867187 56.41488281 -51.5390625 55.54296875 C-54.51672592 52.81812581 -56.09450416 49.86832111 -57.7734375 46.26953125 C-58.22783203 45.34527344 -58.22783203 45.34527344 -58.69140625 44.40234375 C-63.45246253 34.54166719 -63.59284819 22.3425509 -60.5859375 11.83203125 C-56.63828708 1.80472409 -49.48725697 -4.35907933 -39.79296875 -8.67578125 C-26.04306865 -13.91199144 -10.44473288 -9.9464859 0 0 Z M-37.0234375 9.26953125 C-43.04797228 17.08514393 -42.92165017 25.7811392 -42.0234375 35.26953125 C-40.90082266 39.42844117 -39.13258796 42.22760203 -35.9609375 45.20703125 C-31.45678729 47.67704911 -27.0384623 47.89533776 -22.0234375 47.26953125 C-16.74223002 44.53112737 -13.96730575 41.70371778 -11.8359375 36.20703125 C-9.82079579 28.23185175 -10.27582282 19.64625895 -14.0234375 12.26953125 C-17.06894367 8.61492385 -19.22389047 6.54681972 -24.07421875 6.06640625 C-29.15091412 5.96118977 -32.72249072 6.26887071 -37.0234375 9.26953125 Z " fill="#010000" transform="translate(462.0234375,657.73046875)"/>
<path d="M0 0 C7.98828754 8.34332254 10.97945468 18.26375566 10.7578125 29.72265625 C10.01234493 40.92428736 6.53853112 49.8395699 -1.390625 57.953125 C-10.81558241 64.99251228 -20.99544185 66.92029402 -32.578125 65.265625 C-41.9092282 63.42348463 -48.49628712 59.53515791 -54.390625 51.953125 C-60.52871036 41.10512266 -62.30872991 28.96273779 -59.70703125 16.7421875 C-56.28733822 6.6108148 -50.0271632 -1.24346298 -40.3828125 -6.046875 C-26.67301544 -11.63832165 -11.31774804 -9.69035944 0 0 Z M-36.390625 11.953125 C-40.84279049 18.16611478 -41.85515925 25.1076754 -41.13671875 32.6015625 C-40.26279185 37.84512389 -38.96985169 41.8767835 -35.390625 45.953125 C-30.84662064 49.05130979 -26.74040443 49.7341928 -21.390625 48.953125 C-16.69941025 47.2390273 -14.07064377 45.16458307 -11.390625 40.953125 C-8.43375292 33.7087884 -8.09473853 24.96578441 -10.578125 17.515625 C-12.97369821 12.80708456 -15.29702073 9.65099309 -20.390625 7.953125 C-26.76389568 7.28398643 -31.53539485 7.32909628 -36.390625 11.953125 Z " fill="#010000" transform="translate(830.390625,656.046875)"/>
<path d="M0 0 C7.215698 6.9579945 9.7983316 16.18057421 10.10375977 25.94775391 C10.22169959 38.38430536 7.92306301 47.25641314 -0.87890625 56.375 C-8.50686947 63.45431621 -16.95060913 65.80603519 -27.25 65.6875 C-36.69008421 64.86935937 -45.7104718 61.86503096 -52.25 54.6875 C-59.60860312 45.2418603 -62.10255406 34.21610736 -60.75 22.4375 C-59.17591977 11.54341263 -54.84170915 3.6121611 -46.25 -3.3125 C-32.13775354 -13.02912871 -12.89586118 -10.39988805 0 0 Z M-37.5 12.9375 C-41.89768472 19.84814742 -42.1482399 27.49431469 -40.78515625 35.375 C-39.27633438 41.37457572 -37.45855288 44.32364293 -32.25 47.6875 C-27.89037544 49.14070819 -23.69107823 49.50447376 -19.3125 48.0390625 C-14.74878152 45.73753206 -11.86567447 42.58720844 -10.25 37.6875 C-8.59917502 28.97211516 -8.89716885 21.22510293 -13 13.3125 C-15.97109615 9.84622116 -18.62027186 8.06618085 -23.203125 7.40625 C-29.12090127 7.13520681 -33.24656931 8.68406931 -37.5 12.9375 Z " fill="#010000" transform="translate(711.25,802.3125)"/>
<path d="M0 0 C5.46484416 4.65818317 8.74421992 10.4769467 10.5625 17.375 C10.83548044 21.29049913 10.79515255 25.19385932 10.7578125 29.1171875 C10.7549826 30.24069611 10.75215271 31.36420471 10.74923706 32.52175903 C10.73807303 36.09794927 10.71297501 39.6738859 10.6875 43.25 C10.67746533 45.67968387 10.66834033 48.10937169 10.66015625 50.5390625 C10.638146 56.4844722 10.6036418 62.42969315 10.5625 68.375 C3.9625 68.375 -2.6375 68.375 -9.4375 68.375 C-9.40269531 65.44753906 -9.36789062 62.52007813 -9.33203125 59.50390625 C-9.30858322 56.64429701 -9.29039655 53.7846988 -9.27270508 50.92504883 C-9.25769044 48.94941351 -9.23727249 46.97381111 -9.21118164 44.99829102 C-9.17447428 42.14591305 -9.15770007 39.29397871 -9.14453125 36.44140625 C-9.12904739 35.56915909 -9.11356354 34.69691193 -9.09761047 33.79823303 C-9.09586342 27.32029166 -9.80627763 20.49348577 -14.125 15.375 C-18.98596373 13.27296163 -22.81122125 12.82267891 -27.75 14.5 C-30.9018646 16.6989753 -31.86825403 17.85929356 -33.4375 21.375 C-33.90718396 24.96176105 -33.92617843 28.53065145 -33.94921875 32.14453125 C-33.96716995 33.18067062 -33.98512115 34.21681 -34.00361633 35.28434753 C-34.05768686 38.58535729 -34.09160523 41.88622269 -34.125 45.1875 C-34.15817588 47.42905653 -34.19266578 49.67059402 -34.22851562 51.91210938 C-34.3134118 57.3996354 -34.380239 62.88711884 -34.4375 68.375 C-41.0375 68.375 -47.6375 68.375 -54.4375 68.375 C-54.4375 44.945 -54.4375 21.515 -54.4375 -2.625 C-49.30149205 -3.35871542 -45.94668422 -3.68772649 -41 -3.1875 C-39.94941406 -3.08566406 -38.89882813 -2.98382812 -37.81640625 -2.87890625 C-37.03136719 -2.79511719 -36.24632812 -2.71132813 -35.4375 -2.625 C-35.1075 -0.315 -34.7775 1.995 -34.4375 4.375 C-33.76654297 3.76011719 -33.76654297 3.76011719 -33.08203125 3.1328125 C-23.74715874 -5.18696727 -10.87548125 -7.57362736 0 0 Z " fill="#010101" transform="translate(906.4375,651.625)"/>
<path d="M0 0 C6.27 0.33 12.54 0.66 19 1 C19 24.76 19 48.52 19 73 C13.06 73 7.12 73 1 73 C-0.96822886 71.03177114 -0.66248381 67.65191291 -1 65 C-1.70125 65.763125 -2.4025 66.52625 -3.125 67.3125 C-8.49698664 72.33413968 -13.77688296 73.97604273 -21 74 C-27.97409122 73.44592712 -33.94932046 70.87063656 -39 66 C-47.72206694 53.96830179 -46.17061803 38.86680122 -46.13037109 24.69213867 C-46.12493122 22.40862622 -46.13039661 20.12530402 -46.13671875 17.84179688 C-46.13605912 16.3723954 -46.13478036 14.90299405 -46.1328125 13.43359375 C-46.13168457 12.12447021 -46.13055664 10.81534668 -46.12939453 9.46655273 C-46 6 -46 6 -45 1 C-38.73 1 -32.46 1 -26 1 C-25.98541748 2.3317627 -25.97083496 3.66352539 -25.95581055 5.03564453 C-25.89771899 9.9895272 -25.82048627 14.94296051 -25.73754883 19.89648438 C-25.70435062 22.0380116 -25.67630286 24.17962524 -25.65356445 26.32128906 C-25.61992496 29.40467054 -25.56760346 32.48726369 -25.51171875 35.5703125 C-25.50532883 36.52366486 -25.4989389 37.47701721 -25.49235535 38.45925903 C-25.35737834 44.59966567 -24.69516577 49.33290887 -20.125 53.85546875 C-17.56736873 55.23301648 -15.89261787 55.36982322 -13 55.3125 C-11.7315625 55.30669922 -11.7315625 55.30669922 -10.4375 55.30078125 C-7.71174136 54.96442962 -6.23149416 54.61318432 -4 53 C-0.40365836 47.54262218 -0.52872554 42.44384242 -0.48828125 36.1328125 C-0.47033005 35.09808807 -0.45237885 34.06336365 -0.43388367 32.99728394 C-0.37989031 29.70656353 -0.34591958 26.41598729 -0.3125 23.125 C-0.27931731 20.88800082 -0.24482677 18.65102064 -0.20898438 16.4140625 C-0.12416983 10.94281251 -0.05730589 5.47160447 0 0 Z " fill="#000000" transform="translate(504,794)"/>
<path d="M0 0 C4.03503482 4.88555686 5.66521209 10.10122533 7.15625 16.1796875 C3.90693073 16.35423771 0.65881552 16.46060503 -2.59375 16.5546875 C-3.97433594 16.63009766 -3.97433594 16.63009766 -5.3828125 16.70703125 C-7.99635642 16.76384742 -10.29019726 16.74802952 -12.84375 16.1796875 C-15.234375 13.28125 -15.234375 13.28125 -16.84375 10.1796875 C-20.85506133 7.42340031 -25.14909937 7.6505945 -29.84375 8.1796875 C-33.47435299 9.60035823 -34.56321242 10.71880434 -36.59375 14.0546875 C-39.61710958 21.61308645 -40.24225289 30.80917268 -37.71875 38.6171875 C-35.89803938 42.63617547 -33.70350016 44.93401468 -29.84375 47.1796875 C-25.21158003 47.95171583 -21.26639624 47.75479981 -16.90625 45.9921875 C-14.66262867 44.29859746 -14.66262867 44.29859746 -13.8203125 41.5859375 C-11.84375 39.1796875 -11.84375 39.1796875 -9.82299805 38.77416992 C-7.25131602 38.68652539 -4.72645924 38.74497565 -2.15625 38.8671875 C-1.26357422 38.88974609 -0.37089844 38.91230469 0.54882812 38.93554688 C2.75299272 38.99448176 4.95377672 39.07667932 7.15625 39.1796875 C6.15668067 47.08432774 2.57688701 53.63779807 -3.71875 58.6171875 C-12.23114151 64.32435908 -21.35273064 66.05926104 -31.46875 64.4921875 C-39.83704343 62.7217446 -47.47451595 58.99172752 -52.4765625 51.84765625 C-59.41034608 40.67656049 -61.26764708 29.62161453 -58.71875 16.7421875 C-56.44907098 7.5786236 -51.71632436 0.47108994 -43.84375 -4.8203125 C-29.99768137 -12.87996439 -11.56848689 -11.42142986 0 0 Z " fill="#010000" transform="translate(334.84375,656.8203125)"/>
<path d="M0 0 C6.27 0 12.54 0 19 0 C19.495 7.92 19.495 7.92 20 16 C24.29 16 28.58 16 33 16 C33.495 23.92 33.495 23.92 34 32 C29.05 32 24.1 32 19 32 C19.09713145 36.60863188 19.19998007 41.21640518 19.31738281 45.82446289 C19.35557409 47.39079081 19.39044394 48.95720349 19.421875 50.52368164 C19.46774071 52.780418 19.52569769 55.03657583 19.5859375 57.29296875 C19.59748871 57.98899704 19.60903992 58.68502533 19.62094116 59.40214539 C19.73911254 63.32920234 20.1534717 66.50422907 22 70 C24.43387753 71.21693876 26.41838846 71.31959896 29.125 71.5625 C30.73375 71.706875 32.3425 71.85125 34 72 C34 77.28 34 82.56 34 88 C30.83239276 88.10881094 27.66858879 88.18769629 24.5 88.25 C23.613125 88.28351563 22.72625 88.31703125 21.8125 88.3515625 C14.03538863 88.46593178 8.87922407 86.62885676 3.125 81.375 C-2.58824055 72.30102971 -1.23906649 60.70770188 -1.125 50.375 C-1.11494793 48.78255773 -1.10582603 47.19010929 -1.09765625 45.59765625 C-1.07582408 41.73161635 -1.04141784 37.86587764 -1 34 C-3.64 33.34 -6.28 32.68 -9 32 C-9 26.72 -9 21.44 -9 16 C-6.36 16.33 -3.72 16.66 -1 17 C-0.67 11.39 -0.34 5.78 0 0 Z " fill="#010000" transform="translate(649,632)"/>
<path d="M0 0 C6.27 0 12.54 0 19 0 C19 5.61 19 11.22 19 17 C23.62 17 28.24 17 33 17 C33 21.95 33 26.9 33 32 C28.38 32 23.76 32 19 32 C19.11809221 37.09049582 19.24232913 42.18079005 19.37231445 47.27099609 C19.4156808 49.00337626 19.45735463 50.73579963 19.49731445 52.46826172 C19.55497594 54.95553627 19.61868198 57.44259293 19.68359375 59.9296875 C19.70030624 60.70682098 19.71701874 61.48395447 19.73423767 62.28463745 C19.76473429 66.27274216 19.76473429 66.27274216 21 70 C24.0399648 70.69337792 24.0399648 70.69337792 27.5625 71.125 C29.686875 71.41375 31.81125 71.7025 34 72 C33.67 77.61 33.34 83.22 33 89 C29.97786746 88.91244571 26.95847319 88.80548937 23.9375 88.6875 C23.08994141 88.66494141 22.24238281 88.64238281 21.36914062 88.61914062 C15.07780583 88.35194108 9.94204435 87.57868429 5.0390625 83.28125 C4.57242187 82.6934375 4.10578125 82.105625 3.625 81.5 C3.14289063 80.9121875 2.66078125 80.324375 2.1640625 79.71875 C0.19487081 76.81121864 -0.13362935 74.21448971 -0.20532227 70.80395508 C-0.22526749 69.96331009 -0.24521271 69.1226651 -0.26576233 68.25654602 C-0.28247482 67.35333115 -0.29918732 66.45011627 -0.31640625 65.51953125 C-0.33718735 64.59154221 -0.35796844 63.66355316 -0.37937927 62.70744324 C-0.44477323 59.7425376 -0.50371262 56.77754328 -0.5625 53.8125 C-0.60569487 51.8027252 -0.64930947 49.79295937 -0.69335938 47.78320312 C-0.80044427 42.85555968 -0.90174045 37.92782701 -1 33 C-3.97 32.67 -6.94 32.34 -10 32 C-10 27.05 -10 22.1 -10 17 C-7.04335481 15.5216774 -4.25770263 15.93967217 -1 16 C-1.01160156 15.18015625 -1.02320313 14.3603125 -1.03515625 13.515625 C-1.04869141 11.89914062 -1.04869141 11.89914062 -1.0625 10.25 C-1.07990234 8.64898438 -1.07990234 8.64898438 -1.09765625 7.015625 C-1 4 -1 4 0 0 Z " fill="#010000" transform="translate(415,778)"/>
<path d="M0 0 C0.67544861 -0.00540298 1.35089722 -0.01080597 2.04681396 -0.01637268 C4.268641 -0.02883005 6.48916448 -0.01239087 8.7109375 0.00561523 C10.26123116 0.00546017 11.81152521 0.00397004 13.36181641 0.00120544 C16.60662023 -0.0001772 19.8509813 0.01235632 23.09570312 0.03515625 C27.24860954 0.06354089 31.40078063 0.06080196 35.55374146 0.04806614 C38.75372566 0.04110106 41.95354081 0.04890763 45.15350342 0.06132317 C46.68446199 0.06582963 48.21543875 0.0661815 49.74639893 0.06225777 C51.88860076 0.05933728 54.02980009 0.07589057 56.171875 0.09765625 C57.3892334 0.10305923 58.6065918 0.10846222 59.86083984 0.11402893 C63.39719322 0.53912417 65.26071293 1.36885654 68.0859375 3.50170898 C70.9775918 7.88904654 71.72569328 11.29226906 71.0859375 16.50170898 C69.65695348 20.62704975 68.2154888 22.84213043 64.39086914 25.07543945 C58.46110323 27.51819676 51.95076231 26.93213081 45.6484375 26.90014648 C44.24031423 26.90217071 42.83219198 26.90508505 41.42407227 26.90884399 C38.48215694 26.91325099 35.54051607 26.90688919 32.59863281 26.89282227 C28.84282072 26.87573097 25.08765194 26.88558095 21.3318634 26.90353966 C18.42691267 26.91442178 15.52211245 26.910911 12.61715698 26.90315628 C11.23298057 26.90116648 9.84879014 26.90357032 8.46463013 26.91059494 C-5.11853222 26.96441484 -5.11853222 26.96441484 -10.9140625 23.50170898 C-13.84442223 20.27079954 -15.15649242 17.74700656 -15.3515625 13.43920898 C-14.7763197 8.26202376 -13.42666798 5.96446358 -9.73291016 2.3924408 C-6.2279243 0.04148428 -4.19631426 0.00057279 0 0 Z " fill="#000000" transform="translate(681.9140625,404.498291015625)"/>
<path d="M0 0 C0.33 2.31 0.66 4.62 1 7 C1.54269531 6.50628906 2.08539063 6.01257813 2.64453125 5.50390625 C3.35996094 4.86324219 4.07539063 4.22257813 4.8125 3.5625 C5.52019531 2.92441406 6.22789062 2.28632812 6.95703125 1.62890625 C11.87163516 -2.28962115 18.03762044 -1.06411161 24 -1 C24 5.27 24 11.54 24 18 C21.03 18 18.06 18 15 18 C10.0049379 18.82169853 6.81712041 20.03988352 3.5 23.9375 C1.6263639 27.76284037 0.88850738 30.89023842 0.79467773 35.12597656 C0.77473251 35.92650452 0.75478729 36.72703247 0.73423767 37.55181885 C0.70916893 38.83327789 0.70916893 38.83327789 0.68359375 40.140625 C0.66281265 41.02280701 0.64203156 41.90498901 0.62062073 42.81390381 C0.55535133 45.62585831 0.49634553 48.43790445 0.4375 51.25 C0.39429327 53.15886356 0.35067829 55.06771793 0.30664062 56.9765625 C0.1989265 61.65094918 0.09968505 66.32540761 0 71 C-6.6 71 -13.2 71 -20 71 C-20.0225528 61.89040511 -20.04091611 52.78082863 -20.05181217 43.6712122 C-20.05704056 39.44168629 -20.0641374 35.2121804 -20.07543945 30.98266602 C-20.08626991 26.90431457 -20.09227717 22.82598243 -20.09487724 18.74761772 C-20.09673121 17.18822361 -20.10035127 15.6288306 -20.10573006 14.06944466 C-20.11294262 11.89270838 -20.11399085 9.71605286 -20.11352539 7.53930664 C-20.115746 6.29798477 -20.11796661 5.0566629 -20.12025452 3.77772522 C-20 1 -20 1 -19 0 C-12.8483837 -1.12988871 -6.05570762 -2.01856921 0 0 Z " fill="#010000" transform="translate(372,649)"/>
<path d="M0 0 C6.6 0 13.2 0 20 0 C20 23.43 20 46.86 20 71 C14.03715206 73.98142397 6.65640235 71.36980013 0 71 C0 47.57 0 24.14 0 0 Z " fill="#010100" transform="translate(620,795)"/>
<path d="M0 0 C0.71800781 -0.00257813 1.43601563 -0.00515625 2.17578125 -0.0078125 C5.36430623 0.16078758 8.52661165 0.67344452 11.6875 1.125 C11.3575 24.555 11.0275 47.985 10.6875 72.125 C4.4175 72.125 -1.8525 72.125 -8.3125 72.125 C-8.3125 48.695 -8.3125 25.265 -8.3125 1.125 C-5.19317197 0.34516799 -3.11226084 -0.01105599 0 0 Z " fill="#000000" transform="translate(252.3125,647.875)"/>
<path d="M0 0 C0.33 0 0.66 0 1 0 C1 337.92 1 675.84 1 1024 C0.67 1024 0.34 1024 0 1024 C0 686.08 0 348.16 0 0 Z " fill="#B7B7B7" transform="translate(0,0)"/>
<path d="M0 0 C2.30152075 1.95280548 3.27419467 2.83327028 4.0625 5.75 C4.21543456 10.11313315 3.83923291 12.88449761 0.875 16.1875 C-3.63120749 18.69094861 -6.56934901 19.028268 -11.625 18 C-16.42348131 16.18925234 -16.42348131 16.18925234 -17.9375 13.75 C-19.01110679 9.68563145 -19.17694884 7.41793623 -17.75 3.4375 C-13.6720265 -2.60915036 -6.31812261 -2.68856281 0 0 Z " fill="#010101" transform="translate(636.9375,769.25)"/>
<path d="M0 0 C2.9375 1 2.9375 1 5 3 C6.6720127 6.71379744 7.26147977 9.82334102 6.375 13.8125 C3.99895661 17.59256902 2.00936357 18.73337566 -2.3125 19.875 C-6.75254672 20.02551006 -9.16365201 19.21327768 -13 17 C-15.70479184 13.95710918 -16.009249 12.52719326 -15.9375 8.4375 C-14.92436688 4.72267858 -13.983447 3.35059461 -11 1 C-7.53934635 -0.73032683 -3.79018733 -0.34098571 0 0 Z " fill="#020101" transform="translate(258,622)"/>
<path d="M0 0 C2.64 0 5.28 0 8 0 C8 0.33 8 0.66 8 1 C5.36 1 2.72 1 0 1 C0 0.67 0 0.34 0 0 Z " fill="#0D0C0C" transform="translate(421,776)"/>
<path d="M0 0 C1 4 1 4 1 4 Z " fill="#141414" transform="translate(229,716)"/>
<path d="" fill="#070706" transform="translate(0,0)"/>
<path d="M0 0 C3 1 3 1 3 1 Z " fill="#0A0B0A" transform="translate(417,776)"/>
<path d="" fill="#040203" transform="translate(0,0)"/>
<path d="" fill="#0A0A08" transform="translate(0,0)"/>
<path d="" fill="#161514" transform="translate(0,0)"/>
<path d="" fill="#070707" transform="translate(0,0)"/>
<path d="" fill="#040304" transform="translate(0,0)"/>
<path d="M0 0 C2 1 2 1 2 1 Z " fill="#0A0808" transform="translate(326,649)"/>
<path d="" fill="#010201" transform="translate(0,0)"/>
<path d="M0 0 C2 1 2 1 2 1 Z " fill="#030202" transform="translate(608,489)"/>
<path d="M0 0 C2 1 2 1 2 1 Z " fill="#050505" transform="translate(280,434)"/>
<path d="M0 0 C2 1 2 1 2 1 Z " fill="#0F0F0E" transform="translate(242,431)"/>
<path d="" fill="#010202" transform="translate(0,0)"/>
<path d="" fill="#151515" transform="translate(0,0)"/>
<path d="" fill="#010000" transform="translate(0,0)"/>
<path d="M0 0 C2 1 2 1 2 1 Z " fill="#030302" transform="translate(319,207)"/>
<path d="" fill="#121212" transform="translate(0,0)"/>
<path d="M0 0 C2 1 2 1 2 1 Z " fill="#191919" transform="translate(414,112)"/>
<path d="" fill="#1B1C1B" transform="translate(0,0)"/>
<path d="" fill="#1D1C19" transform="translate(0,0)"/>
<path d="" fill="#191715" transform="translate(0,0)"/>
<path d="" fill="#161615" transform="translate(0,0)"/>
<path d="" fill="#1F1F1E" transform="translate(0,0)"/>
<path d="" fill="#1C1D1B" transform="translate(0,0)"/>
<path d="" fill="#0B090B" transform="translate(0,0)"/>
<path d="" fill="#080604" transform="translate(0,0)"/>
<path d="" fill="#060506" transform="translate(0,0)"/>
<path d="" fill="#111212" transform="translate(0,0)"/>
<path d="" fill="#171918" transform="translate(0,0)"/>
<path d="" fill="#050706" transform="translate(0,0)"/>
<path d="" fill="#040503" transform="translate(0,0)"/>
<path d="" fill="#080707" transform="translate(0,0)"/>
<path d="" fill="#070706" transform="translate(0,0)"/>
<path d="" fill="#080506" transform="translate(0,0)"/>
<path d="" fill="#060708" transform="translate(0,0)"/>
<path d="" fill="#070504" transform="translate(0,0)"/>
<path d="" fill="#060505" transform="translate(0,0)"/>
<path d="" fill="#0C0D0B" transform="translate(0,0)"/>
<path d="" fill="#060506" transform="translate(0,0)"/>
<path d="" fill="#070406" transform="translate(0,0)"/>
<path d="" fill="#050303" transform="translate(0,0)"/>
<path d="" fill="#060806" transform="translate(0,0)"/>
<path d="" fill="#0F0D0D" transform="translate(0,0)"/>
<path d="" fill="#050606" transform="translate(0,0)"/>
<path d="" fill="#070604" transform="translate(0,0)"/>
<path d="" fill="#0B0C0B" transform="translate(0,0)"/>
<path d="" fill="#0A0907" transform="translate(0,0)"/>
<path d="" fill="#0F0E0D" transform="translate(0,0)"/>
<path d="" fill="#151418" transform="translate(0,0)"/>
<path d="" fill="#0D0C0C" transform="translate(0,0)"/>
<path d="" fill="#151612" transform="translate(0,0)"/>
<path d="" fill="#100E10" transform="translate(0,0)"/>
<path d="" fill="#2C292A" transform="translate(0,0)"/>
<path d="" fill="#0C0D0D" transform="translate(0,0)"/>
<path d="" fill="#0D0B0C" transform="translate(0,0)"/>
<path d="" fill="#070707" transform="translate(0,0)"/>
<path d="" fill="#050705" transform="translate(0,0)"/>
<path d="" fill="#070A09" transform="translate(0,0)"/>
<path d="" fill="#060606" transform="translate(0,0)"/>
<path d="" fill="#080506" transform="translate(0,0)"/>
<path d="" fill="#080805" transform="translate(0,0)"/>
<path d="" fill="#060506" transform="translate(0,0)"/>
<path d="" fill="#090707" transform="translate(0,0)"/>
<path d="" fill="#070607" transform="translate(0,0)"/>
<path d="" fill="#050403" transform="translate(0,0)"/>
<path d="" fill="#050405" transform="translate(0,0)"/>
<path d="" fill="#060707" transform="translate(0,0)"/>
<path d="" fill="#040303" transform="translate(0,0)"/>
<path d="" fill="#070504" transform="translate(0,0)"/>
<path d="" fill="#050706" transform="translate(0,0)"/>
<path d="" fill="#030305" transform="translate(0,0)"/>
<path d="" fill="#080506" transform="translate(0,0)"/>
<path d="" fill="#050404" transform="translate(0,0)"/>
<path d="" fill="#060505" transform="translate(0,0)"/>
<path d="" fill="#060505" transform="translate(0,0)"/>
<path d="" fill="#080606" transform="translate(0,0)"/>
<path d="" fill="#080709" transform="translate(0,0)"/>
<path d="" fill="#060607" transform="translate(0,0)"/>
<path d="" fill="#060506" transform="translate(0,0)"/>
<path d="" fill="#0D0D0E" transform="translate(0,0)"/>
<path d="" fill="#10100F" transform="translate(0,0)"/>
<path d="" fill="#090908" transform="translate(0,0)"/>
<path d="" fill="#080A0A" transform="translate(0,0)"/>
<path d="" fill="#050807" transform="translate(0,0)"/>
<path d="" fill="#09080B" transform="translate(0,0)"/>
<path d="" fill="#131214" transform="translate(0,0)"/>
<path d="" fill="#0A0A08" transform="translate(0,0)"/>
<path d="" fill="#18191A" transform="translate(0,0)"/>
<path d="" fill="#0E0D0C" transform="translate(0,0)"/>
<path d="" fill="#090708" transform="translate(0,0)"/>
<path d="" fill="#080604" transform="translate(0,0)"/>
<path d="" fill="#090908" transform="translate(0,0)"/>
<path d="" fill="#090707" transform="translate(0,0)"/>
<path d="" fill="#040204" transform="translate(0,0)"/>
<path d="" fill="#080607" transform="translate(0,0)"/>
<path d="" fill="#080907" transform="translate(0,0)"/>
<path d="" fill="#0A090A" transform="translate(0,0)"/>
<path d="" fill="#060504" transform="translate(0,0)"/>
<path d="" fill="#040302" transform="translate(0,0)"/>
<path d="" fill="#0A0A0B" transform="translate(0,0)"/>
<path d="" fill="#010200" transform="translate(0,0)"/>
<path d="" fill="#020301" transform="translate(0,0)"/>
<path d="" fill="#020101" transform="translate(0,0)"/>
<path d="" fill="#070709" transform="translate(0,0)"/>
<path d="" fill="#090808" transform="translate(0,0)"/>
<path d="" fill="#000000" transform="translate(0,0)"/>
<path d="" fill="#030103" transform="translate(0,0)"/>
<path d="" fill="#010000" transform="translate(0,0)"/>
<path d="" fill="#0D0A0C" transform="translate(0,0)"/>
<path d="" fill="#000000" transform="translate(0,0)"/>
<path d="" fill="#000000" transform="translate(0,0)"/>
<path d="" fill="#010200" transform="translate(0,0)"/>
<path d="" fill="#030200" transform="translate(0,0)"/>
<path d="" fill="#010100" transform="translate(0,0)"/>
<path d="" fill="#020101" transform="translate(0,0)"/>
<path d="" fill="#040301" transform="translate(0,0)"/>
<path d="" fill="#030404" transform="translate(0,0)"/>
<path d="" fill="#000200" transform="translate(0,0)"/>
<path d="" fill="#000000" transform="translate(0,0)"/>
<path d="" fill="#000000" transform="translate(0,0)"/>
<path d="" fill="#000000" transform="translate(0,0)"/>
<path d="" fill="#060507" transform="translate(0,0)"/>
<path d="" fill="#050404" transform="translate(0,0)"/>
<path d="" fill="#010201" transform="translate(0,0)"/>
<path d="" fill="#000000" transform="translate(0,0)"/>
<path d="" fill="#040303" transform="translate(0,0)"/>
<path d="" fill="#050505" transform="translate(0,0)"/>
<path d="" fill="#050505" transform="translate(0,0)"/>
<path d="" fill="#050605" transform="translate(0,0)"/>
<path d="" fill="#0A0B0B" transform="translate(0,0)"/>
<path d="" fill="#0C0B0B" transform="translate(0,0)"/>
<path d="" fill="#010001" transform="translate(0,0)"/>
<path d="" fill="#131112" transform="translate(0,0)"/>
<path d="" fill="#111213" transform="translate(0,0)"/>
<path d="" fill="#040300" transform="translate(0,0)"/>
<path d="" fill="#141314" transform="translate(0,0)"/>
<path d="" fill="#0E0D0F" transform="translate(0,0)"/>
<path d="" fill="#141415" transform="translate(0,0)"/>
<path d="" fill="#131211" transform="translate(0,0)"/>
<path d="" fill="#131213" transform="translate(0,0)"/>
<path d="" fill="#060405" transform="translate(0,0)"/>
<path d="" fill="#080908" transform="translate(0,0)"/>
<path d="" fill="#090806" transform="translate(0,0)"/>
<path d="" fill="#030100" transform="translate(0,0)"/>
<path d="" fill="#030504" transform="translate(0,0)"/>
<path d="" fill="#040102" transform="translate(0,0)"/>
<path d="" fill="#040505" transform="translate(0,0)"/>
<path d="" fill="#040204" transform="translate(0,0)"/>
<path d="" fill="#070605" transform="translate(0,0)"/>
<path d="" fill="#060403" transform="translate(0,0)"/>
<path d="" fill="#070807" transform="translate(0,0)"/>
<path d="" fill="#070607" transform="translate(0,0)"/>
<path d="" fill="#000001" transform="translate(0,0)"/>
<path d="" fill="#151414" transform="translate(0,0)"/>
<path d="" fill="#080A08" transform="translate(0,0)"/>
<path d="" fill="#060505" transform="translate(0,0)"/>
<path d="" fill="#151617" transform="translate(0,0)"/>
<path d="" fill="#040202" transform="translate(0,0)"/>
<path d="" fill="#040204" transform="translate(0,0)"/>
<path d="" fill="#121210" transform="translate(0,0)"/>
<path d="" fill="#111110" transform="translate(0,0)"/>
<path d="" fill="#030505" transform="translate(0,0)"/>
<path d="" fill="#000000" transform="translate(0,0)"/>
<path d="" fill="#030201" transform="translate(0,0)"/>
<path d="" fill="#060603" transform="translate(0,0)"/>
<path d="" fill="#020302" transform="translate(0,0)"/>
<path d="" fill="#030202" transform="translate(0,0)"/>
<path d="" fill="#070504" transform="translate(0,0)"/>
<path d="" fill="#000000" transform="translate(0,0)"/>
<path d="" fill="#000000" transform="translate(0,0)"/>
<path d="" fill="#000000" transform="translate(0,0)"/>
<path d="" fill="#0A0B09" transform="translate(0,0)"/>
<path d="" fill="#121113" transform="translate(0,0)"/>
<path d="" fill="#0F0E0D" transform="translate(0,0)"/>
<path d="" fill="#1A1B1B" transform="translate(0,0)"/>
<path d="" fill="#110F10" transform="translate(0,0)"/>
<path d="" fill="#000000" transform="translate(0,0)"/>
<path d="" fill="#121111" transform="translate(0,0)"/>
<path d="" fill="#151414" transform="translate(0,0)"/>
<path d="" fill="#000102" transform="translate(0,0)"/>
<path d="" fill="#1A1B1B" transform="translate(0,0)"/>
<path d="" fill="#191716" transform="translate(0,0)"/>
<path d="" fill="#1B1917" transform="translate(0,0)"/>
</svg>
